# xmcd
#
# Track frame offsets: 
#        150
#        17935
#        36311
#        55867
#        74039
#        93673
#        110711
#        127816
#        139752
#        160934
#        180983
#        199536
#        218537
#        236772
#        253810
#        269332
#        285415
#        300778
#
# Disc length: 4222 seconds
#
# Revision: 0
# Processed by: cddbd v1.5.2PL0 Copyright (c) Steve Scherf et al.
# Submitted via: ExactAudioCopy v0.99pb5
#
DISCID=02107c12
DTITLE=Craig David - The story goes...
DYEAR=1900
DGENRE=Blues
TTITLE0=All The Way
TTITLE1=Don't Love You No More (I'm Sorry)
TTITLE2=Hypnotic
TTITLE3=Separate Ways
TTITLE4=Johnny
TTITLE5=Do You Believe In Love
TTITLE6=One Last Dance
TTITLE7=Unbelievable
TTITLE8=Just Chillin'
TTITLE9=Thief In The Night
TTITLE10=Take Em' Off
TTITLE11=My Love Don't Stop
TTITLE12=Let Her Go
TTITLE13=2 Steeps
TTITLE14=Once in a lifetime
TTITLE15=Spanish
TTITLE16=Worid filled with love
TTITLE17=You know what
EXTD=
EXTT0=
EXTT1=
EXTT2=
EXTT3=
EXTT4=
EXTT5=
EXTT6=
EXTT7=
EXTT8=
EXTT9=
EXTT10=
EXTT11=
EXTT12=
EXTT13=
EXTT14=
EXTT15=
EXTT16=
EXTT17=
PLAYORDER=
